<svg width="282" height="74" viewBox="0 0 282 74" fill="none" xmlns="http://www.w3.org/2000/svg">
<path d="M72.1161 36.9506C72.0909 55.7489 56.8652 70.9619 38.0677 70.969C19.2414 70.9744 3.92395 55.6339 4.00668 36.8554C4.09121 18.0266 19.3511 2.82621 38.109 2.88911C56.9407 2.95381 72.1395 18.1775 72.1161 36.9506ZM25.831 49.1659C25.7716 49.1677 25.7123 49.1713 25.6529 49.1731C25.7644 52.018 25.8292 54.8683 26.0126 57.7096C26.0702 58.5938 26.2464 59.5894 26.7158 60.3047C28.7373 63.3904 34.0967 63.0202 35.7351 59.7386C36.7782 57.6521 37.1756 55.4362 37.0983 53.1035C37.0246 50.8445 37.8609 48.8568 39.1324 47.0183C39.6251 46.3048 40.1179 46.2653 40.6413 46.8997C41.6466 48.1182 42.6142 49.3672 43.5961 50.6037C44.9953 52.3631 45.9791 54.3058 46.4611 56.5253C47.2848 60.3209 50.5238 61.0721 53.2107 60.8223C56.0343 60.5599 58 57.7725 57.2788 55.0696C56.4623 52.0054 55.3814 49.0042 53.2629 46.5582C50.6155 43.5031 47.9088 40.4982 45.141 37.5527C44.4432 36.8087 43.4756 36.2515 42.5351 35.813C40.0604 34.6629 37.5893 35.22 35.1452 36.0359C34.0535 36.4007 33.8287 36.2983 33.924 35.1643C34.1866 32.0606 34.3862 28.9371 34.915 25.873C35.6595 21.5562 35.4132 17.3436 34.2064 13.176C33.6974 11.4202 32.6957 9.95374 30.7983 9.46311C26.9892 8.47827 23.1495 11.316 23.1998 15.1978C23.2394 18.3141 23.4588 21.4394 23.7933 24.5395C24.1872 28.1949 24.9659 31.8144 25.2573 35.4752C25.6188 40.022 25.6547 44.5993 25.831 49.1659Z" fill="#FFFFFF"/>
<path d="M245.46 29.3414C245.741 31.4531 246.111 33.5594 246.279 35.68C246.464 38.0199 246.476 40.376 246.534 42.7249C246.565 43.9541 246.563 45.187 246.52 46.4162C246.487 47.3454 246.629 48.1739 247.072 49.0347C247.314 49.5074 247.223 50.3664 246.94 50.8516C246.331 51.8976 245.304 52.4727 244.048 52.4924C242.642 52.514 241.234 52.4834 239.829 52.523C236.819 52.6092 234.891 50.981 233.576 48.5045C232.511 46.4971 232.589 44.2704 232.819 42.1049C233.22 38.3434 235.223 36.4528 239.488 35.7753C240.572 35.6027 240.617 35.1768 240.522 34.2549C240.243 31.5699 240.025 28.8742 239.908 26.1767C239.842 24.6509 241.25 23.4629 242.833 23.4935C244.392 23.5223 245.694 24.7533 245.726 26.2521C245.748 27.2711 245.73 28.2901 245.73 29.3091C245.64 29.3217 245.55 29.3307 245.46 29.3414ZM242.64 47.7425C242.505 46.8979 242.326 46.046 242.239 45.1852C242.088 43.6846 242.022 42.1749 241.847 40.6761C241.815 40.4012 241.453 39.9662 241.214 39.9465C238.847 39.7488 237.193 41.2566 237.114 43.6073C237.004 46.8727 239.491 48.7615 242.64 47.7425Z" fill="#FFFFFF"/>
<path d="M160.483 41.0931C159.273 41.0931 158.101 41.2566 156.994 41.0535C155.397 40.7606 153.863 40.1316 152.827 38.7819C150.707 36.0179 151.043 32.9322 153.518 30.4431C155.728 28.22 158.395 27.9756 161.235 28.4644C162.645 28.7071 163.6 30.01 163.509 31.2339C163.435 32.2205 162.804 32.8387 161.827 32.8531C161.124 32.8639 160.413 32.7974 159.717 32.8639C159.208 32.9124 158.631 33.0077 158.241 33.2952C157.852 33.5809 157.325 34.3178 157.444 34.5298C157.798 35.1642 158.485 35.2487 159.181 34.8569C160.007 34.3933 160.822 33.8775 161.703 33.5522C163.464 32.9016 164.839 33.7409 165.219 35.583C165.262 35.7896 165.341 35.9909 165.359 36.1994C165.613 39.3588 165.838 42.538 164.958 45.6255C163.622 50.3161 160.386 53.4701 156.155 55.5835C155.072 56.1245 153.617 56.0436 152.336 56.0239C151.184 56.0059 150.439 54.2968 150.849 52.9166C151.218 51.6783 152.101 51.0313 153.315 50.7222C157.379 49.6925 160.543 45.5051 160.483 41.0931Z" fill="#FFFFFF"/>
<path d="M132.478 36.6703C133.668 36.0826 134.632 35.6027 135.596 35.1301C136.003 34.9306 136.408 34.7239 136.825 34.5478C137.873 34.1057 138.96 33.7391 139.974 33.2287C141.076 32.6734 141.819 32.6338 142.337 33.3743C142.947 34.2441 142.58 35.06 141.887 35.6099C140.911 36.3881 139.834 37.0513 138.755 37.6856C137.8 38.2446 136.782 38.6956 135.792 39.1935C135.803 39.2977 135.814 39.4001 135.825 39.5044C136.159 39.6428 136.488 39.7865 136.827 39.9159C139.287 40.8576 141.762 41.7616 144.202 42.7536C145.384 43.2335 146.346 43.9416 146.209 45.4925C146.078 46.9734 145.026 48.1757 143.551 48.0211C142.137 47.8737 140.736 47.4748 139.368 47.0632C137.325 46.4504 135.314 45.7315 133.086 44.9893C133.201 46.2689 133.303 47.3004 133.386 48.3356C133.501 49.7715 133.643 51.2057 133.697 52.6434C133.74 53.7774 132.969 54.5664 131.856 54.6688C130.582 54.7838 129.8 54.2213 129.629 52.9777C128.922 47.8396 128.117 42.7105 127.593 37.5527C127.311 34.7653 127.494 31.9276 127.536 29.1132C127.554 27.8516 128.329 27.0159 129.379 26.8883C130.358 26.7697 131.329 27.4131 131.548 28.6334C131.883 30.4916 132.021 32.384 132.237 34.2639C132.314 34.9755 132.379 35.6926 132.478 36.6703Z" fill="#FFFFFF"/>
<path d="M209.493 36.8069C209.493 35.9622 209.465 35.1175 209.501 34.2747C209.551 33.031 210.527 32.0714 211.806 31.9509C212.916 31.8467 214.063 32.6249 214.256 33.8074C214.477 35.1535 214.484 36.5319 214.644 37.8905C214.844 39.5943 215.004 41.3105 215.365 42.9819C215.671 44.3963 216.234 44.7215 217.682 44.8204C218.453 44.8725 219.225 44.9588 219.996 44.9696C221.552 44.9911 222.174 44.6299 222.394 43.0664C222.62 41.4471 222.554 39.7812 222.523 38.1368C222.505 37.1591 222.307 36.185 222.198 35.2092C222.014 33.5756 223.199 32.0588 224.751 31.9312C226.555 31.7838 228.08 33.0256 228.149 34.7527C228.246 37.2112 228.338 39.6715 228.366 42.13C228.395 44.6317 227.467 46.8009 225.789 48.6304C224.575 49.9549 223.091 50.7744 221.216 50.5875C219.575 50.4239 217.928 50.2981 216.304 50.0303C213.525 49.5703 211.709 47.8827 210.713 45.2984C209.659 42.565 209.463 39.6985 209.493 36.8069Z" fill="#FFFFFF"/>
<path d="M94.5213 37.195C95.7371 37.195 96.8557 37.116 97.9546 37.2256C98.5805 37.2885 99.307 37.5078 99.7657 37.9103C102.375 40.1981 104.632 42.7788 106.006 46.0281C106.756 47.8001 106.237 49.1515 104.555 49.7518C102.999 50.3053 101.667 49.5092 101.172 47.73C100.717 46.0928 98.5859 43.2425 96.9636 42.2343C96.7406 43.3449 96.5554 44.3891 96.3144 45.4224C96.0536 46.5439 95.8396 47.694 95.426 48.7616C94.908 50.0986 93.8847 50.5947 92.5736 50.3754C91.5233 50.1993 90.8255 49.3726 90.6816 48.0481C90.5953 47.2465 90.5503 46.4378 90.545 45.6309C90.5108 40.7462 90.313 35.8849 89.3598 31.0631C89.0522 29.505 89.2159 27.8372 89.2896 26.2252C89.3436 25.0445 90.7122 24.0812 92.0431 24.1243C93.5124 24.171 94.8271 25.3212 94.8127 26.7697C94.7893 29.2965 94.6149 31.8197 94.5285 34.3466C94.4926 35.317 94.5213 36.2929 94.5213 37.195Z" fill="#FFFFFF"/>
<path d="M202.189 52.9579C197.487 52.8447 193.449 49.2629 192.798 44.5921C192.719 44.0296 192.528 43.769 191.938 43.8175C191.379 43.8643 190.812 43.8912 190.253 43.8625C188.748 43.787 187.681 42.8129 187.361 41.2638C187.113 40.0687 187.768 38.7136 188.976 38.1116C189.566 37.8168 190.215 37.5814 190.863 37.4843C191.694 37.3585 191.719 36.9326 191.685 36.2353C191.629 35.06 191.553 33.8379 191.805 32.7057C192.098 31.3938 192.886 30.9984 194.149 31.0901C195.226 31.1691 195.769 31.7029 196.037 33.0022C196.199 33.7912 196.393 34.5855 196.44 35.3835C196.49 36.2569 196.871 36.4312 197.666 36.318C198.53 36.1958 199.418 36.1293 200.287 36.176C202.024 36.2695 202.986 37.3262 203.01 39.0371C203.029 40.4497 202.008 41.4902 200.402 41.6915C199.846 41.7616 199.283 41.7921 198.738 41.9054C197.305 42.1983 197.299 42.2145 197.571 43.6037C197.672 44.1194 197.823 44.6245 197.952 45.133C198.15 45.9058 198.593 46.4468 199.387 46.6606C200.501 46.959 201.603 47.313 202.731 47.5484C204.081 47.8324 205.036 49.0922 204.92 50.5802C204.813 51.9425 203.607 52.992 202.189 52.9579Z" fill="#FFFFFF"/>
<path d="M117.25 46.8242C113.821 46.8188 111.781 45.4799 111.166 42.6278C110.713 40.5305 110.479 38.3578 111.213 36.2713C112.675 32.1144 115.376 31.7047 119.141 32.7938C119.937 33.0238 120.777 34.023 121.079 34.8551C121.854 36.9847 122.568 39.1863 122.885 41.4201C123.37 44.8401 121.664 46.6391 118.2 46.8206C117.885 46.8386 117.567 46.8242 117.25 46.8242Z" fill="#FFFFFF"/>
<path d="M272.835 46.8476C270.279 46.8781 268.035 46.4594 266.981 44.2255C265.565 41.2243 265.447 38.0038 266.961 34.9755C268.191 32.5152 270.056 31.9006 273.155 32.402C274.709 32.6518 275.829 33.4857 276.282 34.9001C277.04 37.2633 277.759 39.6643 278.164 42.1049C278.561 44.5023 276.592 46.551 274.05 46.7829C273.559 46.8278 273.067 46.8368 272.835 46.8476Z" fill="#FFFFFF"/>
<path d="M173.438 52.4978C171.341 52.4888 170.373 51.6711 170.06 50.1992C169.787 48.9125 170.427 47.6329 171.718 47.1441C172.564 46.8242 173.47 46.6463 174.362 46.4701C175.242 46.2976 175.425 45.7854 175.191 45.0216C174.693 43.379 174.258 41.7113 173.664 40.1028C171.886 35.2846 174.914 32.1468 178.795 31.1224C179.576 30.9157 180.47 30.9337 181.272 31.0739C182.392 31.268 182.901 32.0551 182.907 33.2017C182.912 34.3483 182.4 35.0887 181.335 35.414C180.666 35.6189 179.964 35.7267 179.312 35.9676C177.799 36.5229 177.558 37.0944 178.038 38.6256C178.592 40.3976 179.13 42.1749 179.644 43.9577C179.808 44.5274 179.903 45.1223 179.972 45.7117C180.245 48.075 179.358 49.838 177.175 50.8588C175.758 51.5166 174.312 52.115 173.438 52.4978Z" fill="#FFFFFF"/>
<path d="M260.309 41.6915C260.506 43.9164 260.695 46.1413 260.907 48.3644C261.059 49.9387 260.389 51.2254 259.177 51.6208C257.508 52.1653 256.248 51.867 255.649 50.5353C255.327 49.8201 255.151 48.7921 255.422 48.1092C256.066 46.4917 255.696 44.9839 255.539 43.3808C255.311 41.0499 255.334 38.6867 255.374 36.3396C255.395 35.033 256.498 34.201 257.897 34.192C259.345 34.183 260.399 35.0061 260.47 36.4079C260.56 38.1583 260.492 39.9159 260.492 41.6717C260.431 41.6807 260.37 41.6861 260.309 41.6915Z" fill="#FFFFFF"/>
<path d="M257.224 32.7129C256.707 32.6339 256.181 32.5853 255.671 32.4739C252.53 31.7892 252.002 31.1332 251.901 27.9379C251.876 27.1202 252.142 26.4031 252.865 26.0886C255.208 25.0678 257.633 24.8719 259.956 26.067C261.436 26.8272 261.87 28.1985 261.508 29.9561C261.192 31.4909 260.145 32.3966 258.388 32.6195C258.009 32.668 257.617 32.6267 257.23 32.6267C257.228 32.6554 257.226 32.6842 257.224 32.7129Z" fill="#FFFFFF"/>
</svg>
