<svg width="87" height="95" viewBox="0 0 87 95" fill="none" xmlns="http://www.w3.org/2000/svg">
<path d="M87 47.155C86.9678 73.1793 67.5192 94.2401 43.5082 94.25C19.4605 94.2575 -0.105248 73.0201 0.000426051 47.0231C0.108397 20.9565 19.6006 -0.0868101 43.5611 0.000269284C67.6157 0.0898366 87.0298 21.1655 87 47.155ZM27.8777 64.0658C27.8019 64.0683 27.7261 64.0733 27.6502 64.0758C27.7927 68.0142 27.8754 71.9602 28.1097 75.8937C28.1832 77.1178 28.4083 78.4961 29.0079 79.4863C31.59 83.7582 38.4359 83.2457 40.5287 78.7026C41.8611 75.814 42.3688 72.7464 42.27 69.517C42.1758 66.3896 43.244 63.6379 44.8682 61.0927C45.4977 60.1049 46.1271 60.0502 46.7956 60.9285C48.0798 62.6153 49.3157 64.3445 50.57 66.0562C52.3573 68.4919 53.6139 71.1814 54.2295 74.2541C55.2817 79.5087 59.4191 80.5487 62.8512 80.2029C66.4579 79.8396 68.9688 75.9808 68.0476 72.2388C67.0046 67.9968 65.624 63.8419 62.9178 60.4557C59.5362 56.2262 56.0788 52.0663 52.5434 47.9885C51.652 46.9584 50.4161 46.1872 49.2146 45.5801C46.0536 43.9878 42.8972 44.7591 39.7752 45.8886C38.3808 46.3937 38.0936 46.2519 38.2154 44.6819C38.5508 40.3852 38.8057 36.0611 39.4811 31.8191C40.4322 25.8429 40.1175 20.0111 38.576 14.2415C37.9259 11.8107 36.6463 9.78052 34.2227 9.10131C29.3571 7.73789 24.4525 11.6664 24.5168 17.0405C24.5673 21.3546 24.8476 25.6812 25.2749 29.973C25.778 35.0335 26.7727 40.0443 27.1448 45.1124C27.6066 51.407 27.6525 57.7438 27.8777 64.0658Z" fill="#FF7800"/>
</svg>
